<svg width="307" height="72" viewBox="0 0 307 72" fill="none" xmlns="http://www.w3.org/2000/svg">
<rect width="257" height="3" transform="translate(0.5 6.73193)" fill="#DADADA"/>
<rect x="0.5" y="6.73193" width="2" height="3" fill="#B45353"/>
<circle cx="153.015" cy="45.5" r="19" fill="white"/>
<path d="M159.952 45.569L148.315 52.2879L148.315 38.8501L159.952 45.569Z" fill="black"/>
<ellipse cx="209.772" cy="45.6449" rx="17.7572" ry="17.1449" fill="white"/>
<path d="M211.01 45.7072L202.295 50.5654L202.295 40.8491L211.01 45.7072Z" fill="black"/>
<path d="M219.772 45.7073L211.057 50.5654L211.057 40.8491L219.772 45.7073Z" fill="black"/>
<ellipse cx="96.2573" cy="45.6449" rx="17.7572" ry="17.1449" transform="rotate(-180 96.2573 45.6449)" fill="white"/>
<path d="M95.019 45.5827L103.734 40.7246L103.734 50.4408L95.019 45.5827Z" fill="black"/>
<path d="M86.2572 45.5827L94.9722 40.7246L94.9722 50.4408L86.2572 45.5827Z" fill="black"/>
<path d="M286.818 40.05C285.061 41.8073 285.061 44.6566 286.818 46.4139L294.5 54.0959L302.182 46.4139C303.939 44.6566 303.939 41.8073 302.182 40.05C300.425 38.2926 297.575 38.2926 295.818 40.05L294.5 41.368L293.182 40.05C291.425 38.2926 288.575 38.2926 286.818 40.05Z" stroke="#111827" stroke-width="1.5" stroke-linecap="round" stroke-linejoin="round"/>
<path d="M4.5 37.7319V42.7319H5.08152M20.4381 44.7319C19.946 40.7856 16.5796 37.7319 12.5 37.7319C9.14262 37.7319 6.26829 39.8001 5.08152 42.7319M5.08152 42.7319H9.5M20.5 53.7319V48.7319H19.9185M19.9185 48.7319C18.7317 51.6638 15.8574 53.7319 12.5 53.7319C8.42038 53.7319 5.05399 50.6782 4.56189 46.7319M19.9185 48.7319H15.5" stroke="black" stroke-width="1.5" stroke-linecap="round" stroke-linejoin="round"/>
<path d="M277.75 12.8513C277.108 12.8513 276.561 12.6765 276.109 12.3271C275.658 11.9748 275.313 11.4649 275.074 10.7973C274.835 10.1268 274.716 9.31716 274.716 8.3683C274.716 7.42512 274.835 6.61972 275.074 5.9521C275.315 5.28165 275.662 4.77029 276.114 4.41801C276.568 4.0629 277.114 3.88534 277.75 3.88534C278.386 3.88534 278.93 4.0629 279.382 4.41801C279.837 4.77029 280.183 5.28165 280.422 5.9521C280.663 6.61972 280.784 7.42512 280.784 8.3683C280.784 9.31716 280.665 10.1268 280.426 10.7973C280.188 11.4649 279.842 11.9748 279.391 12.3271C278.939 12.6765 278.392 12.8513 277.75 12.8513ZM277.75 11.9138C278.386 11.9138 278.881 11.6069 279.233 10.9933C279.585 10.3797 279.761 9.50466 279.761 8.3683C279.761 7.61262 279.68 6.96915 279.518 6.4379C279.359 5.90665 279.129 5.50182 278.828 5.22341C278.53 4.945 278.17 4.8058 277.75 4.8058C277.119 4.8058 276.626 5.11688 276.271 5.73904C275.916 6.35835 275.739 7.23477 275.739 8.3683C275.739 9.12398 275.818 9.76602 275.977 10.2944C276.136 10.8228 276.365 11.2248 276.663 11.5004C276.964 11.776 277.327 11.9138 277.75 11.9138ZM285.25 12.8513C284.608 12.8513 284.061 12.6765 283.609 12.3271C283.158 11.9748 282.813 11.4649 282.574 10.7973C282.335 10.1268 282.216 9.31716 282.216 8.3683C282.216 7.42512 282.335 6.61972 282.574 5.9521C282.815 5.28165 283.162 4.77029 283.614 4.41801C284.068 4.0629 284.614 3.88534 285.25 3.88534C285.886 3.88534 286.43 4.0629 286.882 4.41801C287.337 4.77029 287.683 5.28165 287.922 5.9521C288.163 6.61972 288.284 7.42512 288.284 8.3683C288.284 9.31716 288.165 10.1268 287.926 10.7973C287.688 11.4649 287.342 11.9748 286.891 12.3271C286.439 12.6765 285.892 12.8513 285.25 12.8513ZM285.25 11.9138C285.886 11.9138 286.381 11.6069 286.733 10.9933C287.085 10.3797 287.261 9.50466 287.261 8.3683C287.261 7.61262 287.18 6.96915 287.018 6.4379C286.859 5.90665 286.629 5.50182 286.328 5.22341C286.03 4.945 285.67 4.8058 285.25 4.8058C284.619 4.8058 284.126 5.11688 283.771 5.73904C283.416 6.35835 283.239 7.23477 283.239 8.3683C283.239 9.12398 283.318 9.76602 283.477 10.2944C283.636 10.8228 283.865 11.2248 284.163 11.5004C284.464 11.776 284.827 11.9138 285.25 11.9138ZM290.653 11.6155C290.443 11.6155 290.263 11.5402 290.112 11.3896C289.962 11.239 289.886 11.0586 289.886 10.8484C289.886 10.6382 289.962 10.4578 290.112 10.3072C290.263 10.1566 290.443 10.0814 290.653 10.0814C290.864 10.0814 291.044 10.1566 291.195 10.3072C291.345 10.4578 291.42 10.6382 291.42 10.8484C291.42 10.9876 291.385 11.1155 291.314 11.2319C291.246 11.3484 291.153 11.4422 291.037 11.5132C290.923 11.5814 290.795 11.6155 290.653 11.6155ZM290.653 7.20068C290.443 7.20068 290.263 7.1254 290.112 6.97483C289.962 6.82426 289.886 6.64387 289.886 6.43364C289.886 6.22341 289.962 6.04301 290.112 5.89245C290.263 5.74188 290.443 5.66659 290.653 5.66659C290.864 5.66659 291.044 5.74188 291.195 5.89245C291.345 6.04301 291.42 6.22341 291.42 6.43364C291.42 6.57284 291.385 6.70068 291.314 6.81716C291.246 6.93364 291.153 7.02739 291.037 7.09841C290.923 7.16659 290.795 7.20068 290.653 7.20068ZM296.055 12.8513C295.413 12.8513 294.866 12.6765 294.414 12.3271C293.962 11.9748 293.617 11.4649 293.379 10.7973C293.14 10.1268 293.021 9.31716 293.021 8.3683C293.021 7.42512 293.14 6.61972 293.379 5.9521C293.62 5.28165 293.967 4.77029 294.418 4.41801C294.873 4.0629 295.418 3.88534 296.055 3.88534C296.691 3.88534 297.235 4.0629 297.687 4.41801C298.141 4.77029 298.488 5.28165 298.727 5.9521C298.968 6.61972 299.089 7.42512 299.089 8.3683C299.089 9.31716 298.969 10.1268 298.731 10.7973C298.492 11.4649 298.147 11.9748 297.695 12.3271C297.244 12.6765 296.697 12.8513 296.055 12.8513ZM296.055 11.9138C296.691 11.9138 297.185 11.6069 297.538 10.9933C297.89 10.3797 298.066 9.50466 298.066 8.3683C298.066 7.61262 297.985 6.96915 297.823 6.4379C297.664 5.90665 297.434 5.50182 297.133 5.22341C296.835 4.945 296.475 4.8058 296.055 4.8058C295.424 4.8058 294.931 5.11688 294.576 5.73904C294.221 6.35835 294.043 7.23477 294.043 8.3683C294.043 9.12398 294.123 9.76602 294.282 10.2944C294.441 10.8228 294.67 11.2248 294.968 11.5004C295.269 11.776 295.631 11.9138 296.055 11.9138ZM303.555 12.8513C302.913 12.8513 302.366 12.6765 301.914 12.3271C301.462 11.9748 301.117 11.4649 300.879 10.7973C300.64 10.1268 300.521 9.31716 300.521 8.3683C300.521 7.42512 300.64 6.61972 300.879 5.9521C301.12 5.28165 301.467 4.77029 301.918 4.41801C302.373 4.0629 302.918 3.88534 303.555 3.88534C304.191 3.88534 304.735 4.0629 305.187 4.41801C305.641 4.77029 305.988 5.28165 306.227 5.9521C306.468 6.61972 306.589 7.42512 306.589 8.3683C306.589 9.31716 306.469 10.1268 306.231 10.7973C305.992 11.4649 305.647 11.9748 305.195 12.3271C304.744 12.6765 304.197 12.8513 303.555 12.8513ZM303.555 11.9138C304.191 11.9138 304.685 11.6069 305.038 10.9933C305.39 10.3797 305.566 9.50466 305.566 8.3683C305.566 7.61262 305.485 6.96915 305.323 6.4379C305.164 5.90665 304.934 5.50182 304.633 5.22341C304.335 4.945 303.975 4.8058 303.555 4.8058C302.924 4.8058 302.431 5.11688 302.076 5.73904C301.721 6.35835 301.543 7.23477 301.543 8.3683C301.543 9.12398 301.623 9.76602 301.782 10.2944C301.941 10.8228 302.17 11.2248 302.468 11.5004C302.769 11.776 303.131 11.9138 303.555 11.9138Z" fill="#454545"/>
</svg>
